<svg width="146" height="40" viewBox="0 0 146 40" fill="none" xmlns="http://www.w3.org/2000/svg">
<g id="HRF">
<path d="M54.4841 0.0010285V39.7671H51.8313V21.1866H2.65234V39.7666H0V0.0010285H2.65286V18.5717H51.8318V0.0010285H54.4841ZM49.1841 0.0010285H46.5312V13.2756H7.95857V0.0010285H5.30572V15.8905H49.1841V0.0010285ZM13.2751 0.0010285H10.6517V10.5841H13.2751V0.0010285ZM43.8598 0.0010285H41.207V10.5841H43.8598V0.0010285ZM5.30572 39.7666H7.95857V26.4925H46.5312V39.7671H49.1841V23.8478H5.30572V39.7666ZM41.1853 39.7666H43.8382V29.1542H41.1853V39.7666ZM10.6305 39.7666H13.2834V29.1542H10.6305V39.7666Z" fill="#E2E2E2" style="fill:#E2E2E2;fill:color(display-p3 0.8863 0.8863 0.8863);fill-opacity:1;"/>
<path d="M69.226 0V11.6925H66.9305V6.84833H62.1756V11.6925H59.8636V0H62.1756V4.6437H66.9305V0H69.226ZM78.6569 3.34036V11.6925H76.4955V10.7573C75.9927 11.509 75.1217 11.9265 73.9989 11.9265C72.2228 11.9265 70.8324 10.6905 70.8324 8.46889V3.34087H72.9938V8.20154C72.9938 9.33779 73.6807 9.92236 74.6524 9.92236C75.708 9.92236 76.4955 9.30437 76.4955 7.8509V3.34087H78.6569V3.34036ZM93.0651 6.54756V11.6925H90.9037V6.6982C90.9037 5.7126 90.4009 5.11157 89.4963 5.11157C88.5412 5.11157 87.9378 5.74653 87.9378 6.99897V11.6925H85.7764V6.6982C85.7764 5.7126 85.2736 5.11157 84.369 5.11157C83.4474 5.11157 82.794 5.74653 82.794 6.99897V11.6925H80.6326V3.34036H82.794V4.22571C83.2633 3.52442 84.0508 3.10643 85.123 3.10643C86.1617 3.10643 86.9327 3.54087 87.4015 4.309C87.9208 3.55733 88.7588 3.10643 89.898 3.10643C91.8083 3.10694 93.0651 4.45964 93.0651 6.54756ZM103.434 3.34036V11.6925H101.272V10.7069C100.669 11.4586 99.7643 11.9265 98.541 11.9265C96.3126 11.9265 94.4694 10.0057 94.4694 7.51671C94.4694 5.02776 96.3126 3.10694 98.541 3.10694C99.7643 3.10694 100.669 3.57481 101.272 4.32648V3.34087H103.434V3.34036ZM101.272 7.51671C101.272 6.11363 100.284 5.16144 98.9432 5.16144C97.6199 5.16144 96.6313 6.11363 96.6313 7.51671C96.6313 8.9198 97.6199 9.87198 98.9432 9.87198C100.284 9.87198 101.272 8.9198 101.272 7.51671ZM113.216 6.56452V11.6925H111.055V6.83188C111.055 5.69614 110.368 5.11157 109.396 5.11157C108.341 5.11157 107.553 5.72956 107.553 7.18303V11.6931H105.392V3.34036H107.553V4.27558C108.056 3.52391 108.927 3.10643 110.05 3.10643C111.826 3.10694 113.216 4.34293 113.216 6.56452ZM63.7351 21.6699H62.1751V25.729H59.8631V14.0365H64.7542C66.9156 14.0365 68.6582 15.7738 68.6582 17.9116C68.6582 19.3815 67.7366 20.7013 66.3962 21.3193L68.9934 25.729H66.4968L63.7351 21.6699ZM62.1751 19.6488H64.7537C65.6247 19.6488 66.3452 18.8802 66.3452 17.9116C66.3452 16.9429 65.6247 16.1913 64.7537 16.1913H62.1751V19.6488ZM69.9965 15.0555C69.9965 14.3373 70.7994 13.7193 71.5199 13.7193C72.2569 13.7193 72.6607 14.3373 72.6607 15.0555C72.6607 15.7738 72.0573 16.3753 71.3203 16.3753C70.5998 16.3753 69.9965 15.7738 69.9965 15.0555ZM70.2481 17.3774H72.4095V25.7296H70.2481V17.3774ZM82.579 17.3774V25.3285C82.579 28.0679 80.4176 29.3044 78.2057 29.3044C76.4125 29.3044 74.9721 28.6195 74.2346 27.2663L76.0778 26.2139C76.4295 26.8653 76.9824 27.383 78.2727 27.383C79.6296 27.383 80.4676 26.6483 80.4676 25.3285V24.4267C79.8812 25.2118 78.9762 25.6961 77.7869 25.6961C75.4074 25.6961 73.6147 23.7753 73.6147 21.4201C73.6147 19.0817 75.4074 17.144 77.7869 17.144C78.9767 17.144 79.8812 17.6283 80.4676 18.4134V17.3779H82.579V17.3774ZM80.4676 21.4195C80.4676 20.0997 79.479 19.1481 78.1216 19.1481C76.7647 19.1481 75.7761 20.1003 75.7761 21.4195C75.7761 22.7558 76.7647 23.708 78.1216 23.708C79.479 23.708 80.4676 22.7558 80.4676 21.4195ZM92.3616 20.601V25.729H90.2003V20.8684C90.2003 19.7326 89.5133 19.1481 88.5417 19.1481C87.486 19.1481 86.6985 19.7661 86.6985 21.2195V25.7296H84.5371V14.0365H86.6985V18.3126C87.2013 17.5609 88.0724 17.1434 89.1951 17.1434C90.9713 17.1434 92.3616 18.3794 92.3616 20.601ZM97.1016 19.4483V22.9229C97.1016 23.8247 97.755 23.8416 98.9948 23.7748V25.729C95.9619 26.0632 94.9402 25.1779 94.9402 22.9229V19.4483H93.4823V17.3769H94.9402V15.69L97.1016 15.0386V17.3769H98.9948V19.4483H97.1016ZM106.651 23.2905C106.651 25.0946 105.076 25.963 103.283 25.963C101.607 25.963 100.368 25.2617 99.7648 23.9753L101.641 22.9229C101.876 23.6077 102.446 24.0087 103.284 24.0087C103.97 24.0087 104.44 23.7748 104.44 23.2905C104.44 22.071 100.117 22.7393 100.117 19.7995C100.117 18.0956 101.575 17.1434 103.301 17.1434C104.658 17.1434 105.831 17.7614 106.484 18.9141L104.641 19.9162C104.389 19.3815 103.92 19.0643 103.301 19.0643C102.764 19.0643 102.329 19.2982 102.329 19.7491C102.328 20.9851 106.651 20.217 106.651 23.2905ZM62.1751 33.0509H67.1316V35.256H62.1751V39.7661H59.8631V28.073H67.2657V30.2776H62.1751V33.0509ZM68.0852 35.5897C68.0852 33.1008 70.0454 31.1799 72.5085 31.1799C74.9716 31.1799 76.9489 33.1008 76.9489 35.5897C76.9489 38.0787 74.9716 39.9995 72.5085 39.9995C70.0454 39.9995 68.0852 38.0787 68.0852 35.5897ZM74.7875 35.5897C74.7875 34.237 73.7989 33.2848 72.5085 33.2848C71.2352 33.2848 70.2466 34.237 70.2466 35.5897C70.2466 36.9429 71.2352 37.8946 72.5085 37.8946C73.7989 37.8951 74.7875 36.9429 74.7875 35.5897ZM85.827 31.4139V39.7661H83.6656V38.8308C83.1628 39.5825 82.2917 40 81.169 40C79.3929 40 78.0025 38.764 78.0025 36.5424V31.4144H80.1639V36.2751C80.1639 37.4113 80.8508 37.9959 81.8224 37.9959C82.8781 37.9959 83.6656 37.3779 83.6656 35.9244V31.4144H85.827V31.4139ZM95.6266 34.6375V39.7656H93.4653V34.9049C93.4653 33.7692 92.7783 33.1846 91.8067 33.1846C90.751 33.1846 89.9635 33.8026 89.9635 35.256V39.7661H87.8022V31.4139H89.9635V32.3491C90.4664 31.5974 91.3374 31.1799 92.4601 31.1799C94.2363 31.1799 95.6266 32.4159 95.6266 34.6375ZM105.98 28.073V39.7656H103.818V38.7799C103.215 39.5486 102.327 39.9995 101.104 39.9995C98.8587 39.9995 97.016 38.0787 97.016 35.5897C97.016 33.1008 98.8592 31.1799 101.104 31.1799C102.327 31.1799 103.215 31.6308 103.818 32.3995V28.073H105.98ZM103.818 35.5897C103.818 34.1866 102.83 33.2344 101.506 33.2344C100.165 33.2344 99.1769 34.1866 99.1769 35.5897C99.1769 36.9928 100.165 37.945 101.506 37.945C102.83 37.9455 103.818 36.9933 103.818 35.5897ZM116.384 31.4139V39.7661H114.222V38.7805C113.619 39.5321 112.714 40 111.491 40C109.263 40 107.42 38.0792 107.42 35.5902C107.42 33.1013 109.263 31.1805 111.491 31.1805C112.714 31.1805 113.619 31.6483 114.222 32.4V31.4144H116.384V31.4139ZM114.222 35.5897C114.222 34.1866 113.234 33.2344 111.893 33.2344C110.57 33.2344 109.581 34.1866 109.581 35.5897C109.581 36.9928 110.57 37.945 111.893 37.945C113.234 37.9455 114.222 36.9933 114.222 35.5897ZM121.34 33.4853V36.9599C121.34 37.8617 121.994 37.8787 123.234 37.8118V39.7661C120.201 40.1003 119.179 39.2149 119.179 36.9599V33.4853H117.722V31.4139H119.179V29.727L121.34 29.0756V31.4139H123.234V33.4853H121.34ZM124.506 29.092C124.506 28.3738 125.109 27.7558 125.83 27.7558C126.567 27.7558 127.17 28.3738 127.17 29.092C127.17 29.8103 126.567 30.4113 125.83 30.4113C125.109 30.4118 124.506 29.8103 124.506 29.092ZM124.757 31.4139H126.918V39.7661H124.757V31.4139ZM128.124 35.5897C128.124 33.1008 130.084 31.1799 132.547 31.1799C135.011 31.1799 136.988 33.1008 136.988 35.5897C136.988 38.0787 135.011 39.9995 132.547 39.9995C130.084 39.9995 128.124 38.0787 128.124 35.5897ZM134.826 35.5897C134.826 34.237 133.838 33.2848 132.547 33.2848C131.274 33.2848 130.286 34.237 130.286 35.5897C130.286 36.9429 131.274 37.8946 132.547 37.8946C133.838 37.8951 134.826 36.9429 134.826 35.5897ZM146 34.6375V39.7656H143.839V34.9049C143.839 33.7692 143.152 33.1846 142.18 33.1846C141.124 33.1846 140.337 33.8026 140.337 35.256V39.7661H138.176V31.4139H140.337V32.3491C140.84 31.5974 141.711 31.1799 142.833 31.1799C144.61 31.1799 146 32.4159 146 34.6375Z" fill="#E2E2E2" style="fill:#E2E2E2;fill:color(display-p3 0.8863 0.8863 0.8863);fill-opacity:1;"/>
</g>
</svg>
