<svg width="194" height="28" viewBox="0 0 194 28" fill="none" xmlns="http://www.w3.org/2000/svg">
<g id="Homepage (Desktop)" clip-path="url(#clip0_15_1518)">
<g id="Supported by">
<g id="Container">
<g id="Supported By">
<g id="Vector">
<path d="M0 16.2488L8.53282 10.8873V10.7575L0 5.38625V1.0848L12.4457 9.18092V12.4639L0 20.5649V16.2488Z" fill="#E2E2E2" style="fill:#E2E2E2;fill:color(display-p3 0.8863 0.8863 0.8863);fill-opacity:1;"/>
<path d="M18.0969 23.2922H33.5438V26.869H18.0969V23.2922Z" fill="#E2E2E2" style="fill:#E2E2E2;fill:color(display-p3 0.8863 0.8863 0.8863);fill-opacity:1;"/>
<path d="M36.9349 10.8725C36.9349 3.97355 40.3067 0.000145845 45.1289 0.000145845C49.9511 0.000145845 53.3228 3.97355 53.3228 10.8725C53.3228 17.8865 49.9511 21.9383 45.1289 21.9383C40.3067 21.9383 36.9349 17.8865 36.9349 10.8725ZM49.9879 10.8725C49.9879 5.78765 48.0569 2.83758 45.1289 2.83758C42.2009 2.83758 40.2699 5.78765 40.2699 10.8725C40.2699 16.0724 42.2009 19.1008 45.1289 19.1008C48.0569 19.1008 49.9779 16.0724 49.9779 10.8725H49.9879Z" fill="#E2E2E2" style="fill:#E2E2E2;fill:color(display-p3 0.8863 0.8863 0.8863);fill-opacity:1;"/>
<path d="M59.2105 5.76077H61.8312L62.075 7.66791H62.1775C63.5964 6.33366 65.5809 5.38621 67.4289 5.38621C71.5733 5.38621 73.8796 8.53945 73.8796 13.4358C73.8796 18.8218 70.5324 21.9506 66.8094 21.9506C65.3735 21.9506 63.6793 21.2381 62.3358 19.992H62.2578L62.4117 22.8588V28H59.2105V5.76077ZM70.5956 13.4358C70.5956 10.1283 69.3986 8.04982 66.5657 8.04982C65.2784 8.04982 63.8424 8.68879 62.4213 10.1601V17.6271C63.7257 18.8144 65.2055 19.2453 66.2074 19.2453C68.704 19.2551 70.5956 17.1693 70.5956 13.4358Z" fill="#E2E2E2" style="fill:#E2E2E2;fill:color(display-p3 0.8863 0.8863 0.8863);fill-opacity:1;"/>
<path d="M78.7456 13.6292C78.7456 8.48804 82.6027 5.37396 86.8106 5.37396C91.4255 5.37396 94.0514 8.41702 94.0514 12.8262C94.0458 13.4117 93.9967 13.996 93.9049 14.5742H80.9668V12.2166H91.9108L91.2159 13.0025C91.2159 9.57501 89.5677 7.86131 86.9032 7.86131C84.1509 7.86131 81.8933 9.90062 81.8933 13.6243C81.8933 17.5046 84.3141 19.4167 87.6955 19.4167C89.4532 19.4167 90.865 18.883 92.2887 18.0261L93.4099 20.0606C91.5942 21.2776 89.4618 21.9307 87.2785 21.9383C82.515 21.9383 78.7456 18.8903 78.7456 13.6292Z" fill="#E2E2E2" style="fill:#E2E2E2;fill:color(display-p3 0.8863 0.8863 0.8863);fill-opacity:1;"/>
<path d="M98.7929 5.76077H101.419L101.663 8.2775H101.789C103.369 6.6568 105.163 5.38621 107.591 5.38621C111.268 5.38621 112.943 7.65566 112.943 11.7686V21.5442H109.737V12.1775C109.737 9.42081 108.816 8.14775 106.485 8.14775C104.778 8.14775 103.62 8.99238 101.999 10.662V21.5442H98.7929V5.76077Z" fill="#E2E2E2" style="fill:#E2E2E2;fill:color(display-p3 0.8863 0.8863 0.8863);fill-opacity:1;"/>
<path d="M119.23 18.8292L121.129 16.5915C122.747 18.1637 124.9 19.0591 127.151 19.096C129.818 19.096 131.296 17.8719 131.296 16.1582C131.296 14.0895 129.757 13.5141 127.668 12.6279L124.701 11.3255C122.548 10.4735 120.191 8.90912 120.191 5.79262C120.191 2.49491 123.143 0.000213573 127.305 0.000213573C129.771 -0.0163927 132.147 0.935996 133.924 2.65404L132.256 4.72521C130.857 3.47433 129.039 2.80019 127.166 2.83765C124.947 2.83765 123.458 3.86834 123.458 5.60164C123.458 7.43777 125.276 8.10859 127.132 8.83078L129.991 10.0965C132.634 11.1296 134.609 12.6769 134.609 15.7689C134.609 19.167 131.754 21.9383 126.976 21.9383C124.089 21.9538 121.311 20.8384 119.23 18.8292Z" fill="#E2E2E2" style="fill:#E2E2E2;fill:color(display-p3 0.8863 0.8863 0.8863);fill-opacity:1;"/>
<path d="M139.841 17.3823C139.841 13.8423 143.04 12.0992 150.98 11.5067C150.865 9.54817 149.822 7.98624 147.026 7.98624C145.124 7.98624 143.249 8.86021 141.711 9.7636L140.492 7.61653C142.257 6.5222 144.88 5.37889 147.601 5.37889C151.936 5.37889 154.183 7.87606 154.183 12.0478V21.5442H151.538L151.282 19.4951H151.18C149.498 20.8171 147.311 21.9433 145.158 21.9433C142.152 21.9384 139.841 20.1634 139.841 17.3823ZM150.98 17.2599V13.5632C144.814 14.0063 142.973 15.2549 142.973 17.1375C142.973 18.7239 144.39 19.3801 146.072 19.3801C147.754 19.3801 149.351 18.5893 150.98 17.2599Z" fill="#E2E2E2" style="fill:#E2E2E2;fill:color(display-p3 0.8863 0.8863 0.8863);fill-opacity:1;"/>
<path d="M163.099 15.3037V8.32394H158.764V5.92964L163.223 5.76073L163.642 0.756643H166.302V5.76073H173.721V8.32394H166.302V15.3135C166.302 18.0285 167.258 19.3432 170.103 19.3432C171.329 19.3397 172.544 19.1106 173.687 18.6675L174.338 21.0202C172.745 21.6161 171.061 21.9268 169.362 21.9383C164.661 21.9383 163.099 19.2673 163.099 15.3037Z" fill="#E2E2E2" style="fill:#E2E2E2;fill:color(display-p3 0.8863 0.8863 0.8863);fill-opacity:1;"/>
<path d="M179.075 19.4828L180.501 17.3994C182.464 18.7784 184.808 19.5029 187.203 19.4706C189.614 19.4706 190.767 18.4913 190.767 17.3186C190.767 16.2022 190.114 15.4947 186.155 14.6746C182.01 13.8104 180.06 12.3659 180.06 9.97652C180.06 7.33741 182.425 5.37396 186.776 5.37396C189.278 5.37396 191.667 6.35322 193.242 7.42552L191.738 9.43302C190.189 8.38842 188.368 7.82554 186.503 7.81479C184.163 7.81479 183.258 8.74263 183.258 9.82475C183.258 11.0488 184.514 11.5385 187.6 12.2068C192.72 13.333 194 14.655 194 17.1277C194 19.7692 191.45 21.9383 186.808 21.9383C184.046 21.9032 181.355 21.0489 179.075 19.4828Z" fill="#E2E2E2" style="fill:#E2E2E2;fill:color(display-p3 0.8863 0.8863 0.8863);fill-opacity:1;"/>
</g>
</g>
</g>
</g>
</g>
<defs>
<clipPath id="clip0_15_1518">
<rect width="1440" height="5373" fill="white" style="fill:white;fill-opacity:1;" transform="translate(-150 -863)"/>
</clipPath>
</defs>
</svg>
